<svg xmlns="http://www.w3.org/2000/svg" width="363" height="64" viewBox="0 0 363 64" fill="none">
<path d="M98.28 47V19H104.28V47H98.28ZM80.64 47V19H86.64V47H80.64ZM83.04 35.76L83.08 30.32H101.36V35.76H83.04ZM111.258 47V25.84H116.938V47H111.258ZM114.058 21.48C112.964 21.48 112.111 21.2133 111.498 20.68C110.884 20.1467 110.577 19.3867 110.577 18.4C110.577 17.4933 110.884 16.76 111.498 16.2C112.138 15.6133 112.991 15.32 114.058 15.32C115.151 15.32 116.004 15.6 116.618 16.16C117.231 16.6933 117.538 17.44 117.538 18.4C117.538 19.3333 117.218 20.08 116.578 20.64C115.964 21.2 115.124 21.48 114.058 21.48ZM123.044 47V17.4H128.724V47H123.044ZM136.411 47V20.48H142.091V47H136.411ZM132.451 30.92V25.84H146.411V30.92H132.451ZM159.758 47.4C157.598 47.4 155.665 46.9333 153.958 46C152.278 45.04 150.945 43.7333 149.958 42.08C148.998 40.4267 148.518 38.5333 148.518 36.4C148.518 34.2667 148.998 32.3867 149.958 30.76C150.945 29.1067 152.278 27.8 153.958 26.84C155.665 25.88 157.598 25.4 159.758 25.4C161.891 25.4 163.798 25.88 165.478 26.84C167.185 27.8 168.518 29.1067 169.478 30.76C170.438 32.3867 170.918 34.2667 170.918 36.4C170.918 38.5333 170.438 40.4267 169.478 42.08C168.518 43.7333 167.185 45.04 165.478 46C163.798 46.9333 161.891 47.4 159.758 47.4ZM159.758 42.44C160.798 42.44 161.731 42.1867 162.558 41.68C163.385 41.1467 164.025 40.4267 164.478 39.52C164.958 38.5867 165.198 37.5467 165.198 36.4C165.198 35.2267 164.958 34.1867 164.478 33.28C164.025 32.3467 163.385 31.6267 162.558 31.12C161.731 30.5867 160.798 30.32 159.758 30.32C158.691 30.32 157.745 30.5867 156.918 31.12C156.091 31.6533 155.438 32.3733 154.958 33.28C154.478 34.1867 154.251 35.2267 154.278 36.4C154.251 37.5467 154.478 38.5867 154.958 39.52C155.438 40.4267 156.091 41.1467 156.918 41.68C157.745 42.1867 158.691 42.44 159.758 42.44ZM175.192 47V25.84H180.632L180.792 30.16L179.672 30.64C179.965 29.68 180.485 28.8133 181.232 28.04C182.005 27.24 182.925 26.6 183.992 26.12C185.058 25.64 186.178 25.4 187.352 25.4C188.952 25.4 190.285 25.72 191.352 26.36C192.445 27 193.258 27.9733 193.792 29.28C194.352 30.56 194.632 32.1467 194.632 34.04V47H188.952V34.48C188.952 33.52 188.818 32.72 188.552 32.08C188.285 31.44 187.872 30.9733 187.312 30.68C186.778 30.36 186.112 30.2267 185.312 30.28C184.672 30.28 184.072 30.3867 183.512 30.6C182.978 30.7867 182.512 31.0667 182.112 31.44C181.738 31.8133 181.432 32.24 181.192 32.72C180.978 33.2 180.872 33.72 180.872 34.28V47H178.072C177.458 47 176.912 47 176.432 47C175.952 47 175.538 47 175.192 47Z" fill="url(#paint0_linear_150_36)"/>
<path d="M204.64 47V19H210.12L220.32 35.6L216.72 35.56L227.04 19H232.28V47H226.4V37.4C226.4 35 226.453 32.84 226.56 30.92C226.693 29 226.907 27.0933 227.2 25.2L227.92 27.08L219.72 39.8H217.08L209.04 27.16L209.72 25.2C210.013 26.9867 210.213 28.8267 210.32 30.72C210.453 32.5867 210.52 34.8133 210.52 37.4V47H204.64ZM248.802 47.4C246.509 47.4 244.509 46.9333 242.802 46C241.095 45.0667 239.762 43.7867 238.802 42.16C237.842 40.5333 237.362 38.6667 237.362 36.56C237.362 34.9333 237.629 33.44 238.162 32.08C238.695 30.72 239.442 29.5467 240.402 28.56C241.362 27.5467 242.495 26.7733 243.802 26.24C245.135 25.68 246.575 25.4 248.122 25.4C249.562 25.4 250.895 25.6667 252.122 26.2C253.349 26.7067 254.402 27.44 255.282 28.4C256.189 29.3333 256.882 30.44 257.362 31.72C257.842 33 258.055 34.4 258.002 35.92L257.962 37.68H240.962L240.042 34.2H253.282L252.642 34.92V34.04C252.589 33.32 252.349 32.6667 251.922 32.08C251.522 31.4933 251.002 31.04 250.362 30.72C249.722 30.4 249.002 30.24 248.202 30.24C247.029 30.24 246.029 30.4667 245.202 30.92C244.402 31.3733 243.789 32.04 243.362 32.92C242.935 33.8 242.722 34.8667 242.722 36.12C242.722 37.4 242.989 38.5067 243.522 39.44C244.082 40.3733 244.855 41.1067 245.842 41.64C246.855 42.1467 248.042 42.4 249.402 42.4C250.335 42.4 251.189 42.2533 251.962 41.96C252.735 41.6667 253.562 41.16 254.442 40.44L257.162 44.24C256.389 44.9333 255.535 45.52 254.602 46C253.669 46.4533 252.709 46.8 251.722 47.04C250.735 47.28 249.762 47.4 248.802 47.4ZM264.239 47V20.48H269.919V47H264.239ZM260.279 30.92V25.84H274.239V30.92H260.279ZM285.666 47.4C283.906 47.4 282.32 46.92 280.906 45.96C279.493 45 278.373 43.6933 277.546 42.04C276.72 40.3867 276.306 38.4933 276.306 36.36C276.306 34.2267 276.72 32.3467 277.546 30.72C278.4 29.0667 279.546 27.7733 280.986 26.84C282.426 25.88 284.066 25.4 285.906 25.4C286.946 25.4 287.893 25.56 288.746 25.88C289.626 26.1733 290.386 26.5867 291.026 27.12C291.693 27.6533 292.253 28.2667 292.706 28.96C293.16 29.6533 293.48 30.4 293.666 31.2L292.466 31V25.84H298.106V47H292.386V41.92L293.666 41.8C293.453 42.5467 293.106 43.2533 292.626 43.92C292.146 44.5867 291.546 45.1867 290.826 45.72C290.133 46.2267 289.346 46.64 288.466 46.96C287.586 47.2533 286.653 47.4 285.666 47.4ZM287.226 42.48C288.293 42.48 289.226 42.2267 290.026 41.72C290.826 41.2133 291.44 40.5067 291.866 39.6C292.32 38.6667 292.546 37.5867 292.546 36.36C292.546 35.16 292.32 34.1067 291.866 33.2C291.44 32.2933 290.826 31.5867 290.026 31.08C289.226 30.5467 288.293 30.28 287.226 30.28C286.186 30.28 285.266 30.5467 284.466 31.08C283.693 31.5867 283.08 32.2933 282.626 33.2C282.173 34.1067 281.946 35.16 281.946 36.36C281.946 37.5867 282.173 38.6667 282.626 39.6C283.08 40.5067 283.693 41.2133 284.466 41.72C285.266 42.2267 286.186 42.48 287.226 42.48Z" fill="url(#paint1_linear_150_36)"/>
<path d="M313.64 47V19H319.64V47H313.64ZM316.4 35.88V30.72H330.88V35.88H316.4ZM316.4 24.4V19H332.56V24.4H316.4ZM354.616 47L345.936 34.44L334.816 19H342.176L350.656 31.4L361.976 47H354.616ZM334.616 47L345.296 31.76L349.856 34.92L341.576 47H334.616ZM351.296 34L346.776 30.96L354.616 19H361.576L351.296 34Z" fill="url(#paint2_linear_150_36)"/>
<path d="M24.4955 41.0961C24.4955 44.7062 24.4594 48.3164 24.4955 51.9463C24.5282 54.3487 23.7883 55.4777 21.2971 54.1879C12.8118 49.7933 8.02568 42.6812 7.54773 33.2751C7.11561 24.7846 10.3009 17.3279 17.4505 12.3393C25.4186 6.78293 34.2117 5.44717 43.0374 10.0419C52.2037 14.7811 56.6984 22.7399 56.8883 33.088C56.957 36.8393 56.9341 40.5972 56.9439 44.3518C56.9439 46.4358 58.0406 47.3909 60.0539 47.3843C61.7759 47.3843 63.7629 47.3318 63.74 45.0443C63.6647 36.7573 65.1182 28.362 61.8675 20.2883C55.5886 4.68575 38.8373 -3.42731 22.6262 1.37751C7.31857 5.91649 -2.52532 22.4544 0.56829 38.4344C3.06282 51.3063 14.3176 61.9695 27.2486 63.8796C30.6434 64.3817 32.1591 63.3709 32.1067 59.764C31.9889 50.0296 32.0412 40.292 32.074 30.5543C32.074 28.0042 31.5436 26.314 28.4271 26.2582C25.1534 26.2024 24.4169 27.8795 24.4987 30.6758C24.5904 34.1514 24.5216 37.6303 24.5216 41.1059L24.4955 41.0961Z" fill="url(#paint3_linear_150_36)"/>
<path d="M43.9995 49.1086C43.9995 45.5639 43.9683 42.0191 43.9995 38.4743C44.0345 35.7771 42.2712 34.9779 39.2818 35.0005C36.4053 35.023 35.0002 35.9898 35.0002 38.4002C35.0002 45.7701 35.0352 53.14 35.0002 60.5099C34.9807 63.2265 36.7284 64.0096 39.7022 63.9999C42.5904 63.9999 43.9839 62.9816 43.9839 60.5873C43.9839 56.7653 43.9839 52.9435 43.9839 49.1215L43.9995 49.1086Z" fill="white"/>
<path d="M46.0116 53.9136C46.0116 56.1249 46.0635 58.3424 46.0116 60.5537C45.9355 63.0761 47.329 63.9877 50.0502 64C52.8579 64 54.0266 62.9036 53.999 60.4644C53.9471 56.1681 53.9367 51.8717 53.999 47.5754C54.0474 44.8036 52.405 44.1106 49.5938 44.0059C46.3989 43.892 45.9459 45.4349 46.0047 47.6616C46.0566 49.7498 46.0116 51.8348 46.0116 53.9136Z" fill="url(#paint4_linear_150_36)"/>
<path d="M56.8043 56.3133C56.8043 62.6207 55.5697 63.2308 61.0632 63.2308C62.4319 63.2308 63.5273 63.4185 64 62.5C64.5 58.5002 64.5255 55.6892 64.5 54.5C64.397 49.7059 65.5664 49.4613 61.0632 49.3544C56.2755 49.2404 56.6576 49.5046 56.8009 52.7774C56.8509 53.9548 56.8109 55.1359 56.8043 56.3133Z" fill="white"/>
<defs>
<linearGradient id="paint0_linear_150_36" x1="137.5" y1="7" x2="137.5" y2="57" gradientUnits="userSpaceOnUse">
<stop stop-color="#57D792"/>
<stop offset="1" stop-color="#198D4F"/>
</linearGradient>
<linearGradient id="paint1_linear_150_36" x1="251" y1="7" x2="251" y2="57" gradientUnits="userSpaceOnUse">
<stop stop-color="#57D792"/>
<stop offset="1" stop-color="#198D4F"/>
</linearGradient>
<linearGradient id="paint2_linear_150_36" x1="336.5" y1="7" x2="336.5" y2="57" gradientUnits="userSpaceOnUse">
<stop stop-color="#57D792"/>
<stop offset="1" stop-color="#198D4F"/>
</linearGradient>
<linearGradient id="paint3_linear_150_36" x1="32" y1="0" x2="32" y2="64" gradientUnits="userSpaceOnUse">
<stop stop-color="#57D792"/>
<stop offset="1" stop-color="#198D4F"/>
</linearGradient>
<linearGradient id="paint4_linear_150_36" x1="50" y1="44" x2="50" y2="64" gradientUnits="userSpaceOnUse">
<stop stop-color="#57D792"/>
<stop offset="1" stop-color="#198D4F"/>
</linearGradient>
</defs>
<script xmlns=""/></svg>